<svg xmlns="http://www.w3.org/2000/svg" viewBox="0 0 80 80" fill="none">
  <defs>
    <filter id="glow-h">
      <feGaussianBlur stdDeviation="2" result="blur"/>
      <feComposite in="SourceGraphic" in2="blur" operator="over"/>
    </filter>
  </defs>
  <circle cx="40" cy="40" r="38" fill="#1c1917" stroke="#f97316" stroke-width="2"/>
  <g filter="url(#glow-h)">
    <path d="M30 26c-5 3.5-7 9-7 13s2 7 3.5 10.5c1 2 1.5 3.5 0.5 5.5s-3 3.5-5 3.5" stroke="#f97316" stroke-width="2.5" stroke-linecap="round" fill="none"/>
    <path d="M42 19a16 16 0 010 32" stroke="#f97316" stroke-width="2.5" stroke-linecap="round" fill="none"/>
    <path d="M30 26c3.5-2.5 8.5-3.5 12-2" stroke="#f97316" stroke-width="2.5" stroke-linecap="round" fill="none"/>
    <path d="M48 27a9 9 0 010 14" stroke="#f97316" stroke-width="2" stroke-linecap="round" fill="none" opacity="0.7"/>
    <path d="M53 23a14 14 0 010 22" stroke="#f97316" stroke-width="1.5" stroke-linecap="round" fill="none" opacity="0.4"/>
    <path d="M57.5 19.5a19 19 0 010 29" stroke="#f97316" stroke-width="1" stroke-linecap="round" fill="none" opacity="0.2"/>
  </g>
</svg>
