<svg xmlns="http://www.w3.org/2000/svg" viewBox="0 0 80 80" fill="none">
  <defs>
    <filter id="glow-r">
      <feGaussianBlur stdDeviation="2" result="blur"/>
      <feComposite in="SourceGraphic" in2="blur" operator="over"/>
    </filter>
  </defs>
  <circle cx="40" cy="40" r="38" fill="#1c1917" stroke="#f97316" stroke-width="2"/>
  <g filter="url(#glow-r)">
    <path d="M16 24c0-2 1-3.5 3.5-3.5 4 0 9 1 20.5 5.5v30c-11.5-4.5-16.5-5.5-20.5-5.5-2.5 0-3.5 1.5-3.5 3.5V24z" stroke="#f97316" stroke-width="2.5" fill="none" stroke-linecap="round"/>
    <path d="M64 24c0-2-1-3.5-3.5-3.5-4 0-9 1-20.5 5.5v30c11.5-4.5 16.5-5.5 20.5-5.5 2.5 0 3.5 1.5 3.5 3.5V24z" stroke="#f97316" stroke-width="2.5" fill="none" stroke-linecap="round"/>
    <circle cx="26" cy="32" r="1.8" fill="#f97316"/>
    <circle cx="31" cy="32" r="1.8" fill="#f97316"/>
    <circle cx="26" cy="37" r="1.8" fill="#f97316"/>
    <circle cx="31" cy="37" r="1.8" fill="#f97316"/>
    <circle cx="26" cy="42" r="1.8" fill="#f97316"/>
    <circle cx="31" cy="42" r="1.8" fill="#f97316"/>
    <circle cx="49" cy="32" r="1.8" fill="#f97316"/>
    <circle cx="54" cy="32" r="1.8" fill="#f97316"/>
    <circle cx="49" cy="37" r="1.8" fill="#f97316"/>
    <circle cx="54" cy="37" r="1.8" fill="#f97316"/>
    <circle cx="49" cy="42" r="1.8" fill="#f97316"/>
    <circle cx="54" cy="42" r="1.8" fill="#f97316"/>
  </g>
</svg>
